<!-- <svg width="44" height="44" viewBox="0 0 44 44" fill="none" xmlns="http://www.w3.org/2000/svg">
<rect width="44" height="44" rx="6" fill="#4F46E5"/>
<path d="M31.3662 34H25.7427L17.4282 19.4014V34H11.7725V10.5391H17.4282L25.7266 25.1377V10.5391H31.3662V34Z" fill="white"/>
</svg> -->

<svg width="512px" height="512px" viewBox="0 0 512 512" style="enable-background:new 0 0 512 512;" version="1.1" xml:space="preserve" xmlns="http://www.w3.org/2000/svg" xmlns:xlink="http://www.w3.org/1999/xlink"><g id="_x34_84_x2C__bulb_x2C__light_x2C__idea_x2C__education"><g><path d="M276,411h-30h-40v-49.97c-46.98-19.59-80-65.95-80-120.03c0-71.8,58.2-130,130-130    s130,58.2,130,130c0,50.15-28.4,93.67-70,115.35V411H276z" style="fill:#FCD884;"/><g><g><g><path d="M136.5,250.08c0-71.8,58.2-130,130-130c30.005,0,57.63,10.169,79.629,27.242       C322.759,124.832,290.997,111,256,111c-71.8,0-130,58.2-130,130c0,41.79,19.728,78.958,50.368,102.737       C151.798,320.09,136.5,286.877,136.5,250.08z" style="fill:#EABF6A;"/></g></g></g><rect height="30" style="fill:#F7D794;" width="110" x="206" y="441"/><polygon points="214.25,449.375 316,449.375 316,441 206,441 206,471 214.25,471   " style="fill:#E2BF7F;"/><polygon points="316,411 316,441 206,441 206,411 246,411 276,411   " style="fill:#57606F;"/><polygon points="214.375,419.625 254.375,419.625 284.375,419.625 316,419.625 316,411 276,411 246,411     206,411 206,441 214.375,441   " style="fill:#414A56;"/><path d="M319.64,172.36c8.12,8.12-4.76,34.69-29.56,63.64c-5.01-5.84-10.5-11.78-16.4-17.68    c-5.899-5.9-11.84-11.39-17.68-16.4C284.95,177.12,311.52,164.24,319.64,172.36z" style="fill:#E8F9F9;"/><path d="M321.965,181.257c0.361-3.889-0.363-6.936-2.325-8.897c-8.12-8.12-34.689,4.76-63.64,29.56    c2.248,1.929,4.514,3.95,6.784,6.017C289.612,185.79,313.708,174.428,321.965,181.257z" style="fill:#CCE5E4;"/><path d="M290.08,236c24.8,28.95,37.68,55.52,29.56,63.64s-34.689-4.76-63.64-29.56    c5.84-5.01,11.78-10.5,17.68-16.4C279.58,247.78,285.07,241.84,290.08,236z" style="fill:#E8F9F9;"/><g><g><g><path d="M266.513,260.848c1.206-1.206,2.383-2.414,3.554-3.622c-4.705,4.562-9.418,8.866-14.066,12.854       c0.153,0.131,0.304,0.256,0.457,0.387C259.806,267.395,263.165,264.195,266.513,260.848z" style="fill:#CCE5E4;"/></g><g><path d="M290.08,236c-2.167,2.526-4.439,5.072-6.78,7.624c20.813,24.398,33.106,47.037,31.439,58.283       c2.017-0.299,3.673-1.039,4.9-2.267C327.76,291.52,314.88,264.95,290.08,236z" style="fill:#CCE5E4;"/></g></g></g><path d="M238.32,253.68c5.9,5.9,11.84,11.39,17.68,16.4c-28.95,24.8-55.52,37.68-63.64,29.56    c-8.12-8.12,4.76-34.689,29.56-63.64C226.93,241.84,232.42,247.78,238.32,253.68z" style="fill:#E8F9F9;"/><path d="M238.32,253.68c-5.9-5.9-11.39-11.84-16.4-17.68c-0.316,0.369-0.621,0.735-0.933,1.103    c3.436,3.79,7.04,7.598,10.833,11.392c5.9,5.9,11.84,11.39,17.68,16.4c-24.719,21.176-47.693,33.648-58.938,31.79    c0.401,1.153,0.992,2.149,1.798,2.955c8.12,8.12,34.69-4.76,63.64-29.56C250.16,265.07,244.22,259.58,238.32,253.68z" style="fill:#CCE5E4;"/><path d="M256,201.92c-5.84,5.01-11.78,10.5-17.68,16.4c-5.9,5.9-11.39,11.84-16.4,17.68    c-24.8-28.95-37.68-55.52-29.56-63.64C200.48,164.24,227.05,177.12,256,201.92z" style="fill:#E8F9F9;"/><path d="M191.313,182.527c7.615-7.615,31.458,3.24,58.272,25.075c2.146-1.948,4.289-3.857,6.416-5.682    c-28.95-24.8-55.52-37.68-63.64-29.56c-2.356,2.356-2.933,6.273-1.975,11.344C190.66,183.281,190.959,182.88,191.313,182.527z" style="fill:#CCE5E4;"/><path d="M273.68,218.32c5.9,5.9,11.391,11.84,16.4,17.68c-5.01,5.84-10.5,11.78-16.4,17.68    c-5.899,5.9-11.84,11.39-17.68,16.4c-5.84-5.01-11.78-10.5-17.68-16.4c-5.9-5.9-11.39-11.84-16.4-17.68    c5.01-5.84,10.5-11.78,16.4-17.68c5.9-5.9,11.84-11.39,17.68-16.4C261.84,206.93,267.78,212.42,273.68,218.32z" style="fill:#F7D794;"/><path d="M316,476H206c-2.761,0-5-2.238-5-5V364.318c-48.713-21.721-80-69.761-80-123.318c0-74.439,60.561-135,135-135    s135,60.561,135,135c0,49.501-26.741,94.565-70,118.344V471C321,473.762,318.762,476,316,476z M211,466h100V356.35    c0-1.863,1.036-3.572,2.689-4.434C355.208,330.278,381,287.777,381,241c0-68.925-56.075-125-125-125c-68.925,0-125,56.075-125,125    c0,50.627,30.195,95.93,76.924,115.415c1.863,0.777,3.076,2.598,3.076,4.615V466z"/><path d="M356,446H166c-2.761,0-5-2.238-5-5s2.239-5,5-5h190c2.762,0,5,2.238,5,5S358.762,446,356,446z"/><path d="M356,416H166c-2.761,0-5-2.238-5-5s2.239-5,5-5h190c2.762,0,5,2.238,5,5S358.762,416,356,416z"/><path d="M407.988,376c-1.151,0-2.308-0.395-3.25-1.202c-2.098-1.796-2.342-4.952-0.546-7.05C434.377,332.49,451,287.478,451,241    c0-107.523-87.477-195-195-195S61,133.477,61,241c0,46.478,16.624,91.49,46.808,126.748c1.796,2.098,1.551,5.254-0.547,7.05    c-2.098,1.798-5.254,1.552-7.05-0.546C68.477,337.184,51,289.86,51,241c0-113.038,91.962-205,205-205    c113.037,0,205,91.962,205,205c0,48.86-17.477,96.184-49.212,133.252C410.8,375.407,409.397,376,407.988,376z"/><path d="M242.819,226.486c5.9-5.9,11.84-11.39,17.681-16.4c5.84,5.01,11.779,10.5,17.68,16.4    c3.687,3.686,7.191,7.386,10.54,11.069c0.45-0.518,0.917-1.039,1.36-1.555c-5.01-5.84-10.5-11.78-16.4-17.68    c-5.899-5.9-11.84-11.39-17.68-16.4c-5.84,5.01-11.78,10.5-17.68,16.4c-5.9,5.9-11.39,11.84-16.4,17.68    c1.88,2.191,3.849,4.399,5.86,6.611C232.424,237.272,237.441,231.865,242.819,226.486z" style="fill:#E2BF7F;"/><path d="M199.415,307.064c-4.446,0-8.009-1.309-10.59-3.89c-12.323-12.323,7.055-44.461,29.298-70.428    c5.213-6.076,10.818-12.118,16.662-17.962c5.845-5.844,11.887-11.449,17.96-16.66c24.262-20.783,46.631-33.19,59.842-33.19    c4.445,0,8.009,1.309,10.589,3.889c12.324,12.324-7.054,44.462-29.298,70.429c-5.21,6.073-10.814,12.116-16.662,17.963    c-5.843,5.844-11.886,11.448-17.959,16.659C234.994,294.658,212.625,307.064,199.415,307.064z M312.586,174.935    c-10.57,0-31.504,12.083-53.333,30.782c-5.878,5.043-11.732,10.474-17.398,16.138c-5.664,5.665-11.095,11.52-16.14,17.4    c-28.257,32.986-33.365,53.303-29.819,56.849c0.794,0.794,2.352,0.96,3.519,0.96c10.57,0,31.504-12.082,53.333-30.781    c5.879-5.044,11.732-10.474,17.396-16.138c5.668-5.668,11.099-11.522,16.142-17.4c28.258-32.987,33.365-53.303,29.819-56.849    C315.311,175.102,313.753,174.935,312.586,174.935z"/><path d="M312.585,307.064c-13.21,0-35.579-12.406-59.838-33.188c-6.072-5.209-12.115-10.813-17.962-16.661    c-5.844-5.845-11.449-11.887-16.66-17.96c-22.246-25.97-41.624-58.107-29.301-70.432c2.581-2.581,6.144-3.889,10.59-3.889    c13.21,0,35.58,12.407,59.839,33.188c6.08,5.217,12.123,10.822,17.963,16.662c5.847,5.847,11.451,11.889,16.659,17.96    c22.246,25.969,41.624,58.107,29.3,70.43C320.595,305.756,317.031,307.064,312.585,307.064z M199.414,174.935    c-1.167,0-2.725,0.167-3.519,0.96c-3.546,3.546,1.562,23.862,29.822,56.852c5.043,5.878,10.474,11.732,16.138,17.398    c5.668,5.668,11.523,11.098,17.4,16.14c21.825,18.697,42.76,30.779,53.329,30.779c1.167,0,2.726-0.166,3.52-0.96    c3.546-3.546-1.562-23.862-29.821-56.852c-5.041-5.875-10.472-11.73-16.139-17.397c-5.661-5.661-11.516-11.092-17.4-16.141    C230.918,187.018,209.984,174.935,199.414,174.935z"/><path d="M276,416c-2.762,0-5-2.238-5-5v-80c0-2.762,2.238-5,5-5s5,2.238,5,5v80C281,413.762,278.762,416,276,416z"/><path d="M246,416c-2.761,0-5-2.238-5-5v-80c0-2.762,2.239-5,5-5s5,2.238,5,5v80C251,413.762,248.761,416,246,416z"/></g></g><g id="Layer_1"/></svg>